<svg width="418" height="104" viewBox="0 0 418 104" fill="none" xmlns="http://www.w3.org/2000/svg">
<path d="M115.118 25.556L99.6713 67.779L84.1132 25.556H71L92.6701 81.1126H106.561L128.231 25.556H115.118Z" fill="white"/>
<path d="M140.884 58.4455H185.114C185.336 56.89 185.558 55.1121 185.558 53.4454C185.558 37.4451 174.223 24.1116 157.665 24.1116C140.218 24.1116 128.327 36.8896 128.327 53.3343C128.327 70.0013 140.218 82.5571 158.554 82.5571C169.445 82.5571 177.779 78.0015 182.891 70.4458L173.001 64.6679C170.334 68.5568 165.333 71.5569 158.665 71.5569C149.775 71.5569 142.774 67.1124 140.884 58.4455ZM140.773 48.6676C142.44 40.3341 148.552 35.0007 157.554 35.0007C164.777 35.0007 171.778 39.1118 173.445 48.6676H140.773Z" fill="white"/>
<path d="M205.898 34.8895V25.556H193.896V81.1126H205.898V53.1121C205.898 40.6674 215.122 37.0007 223.012 37.5563V24.556C216.011 24.556 209.232 27.3338 205.898 34.8895Z" fill="white"/>
<path d="M229.657 81.1126H241.659V0H229.657V81.1126Z" fill="white"/>
<path d="M297.379 25.556V33.4451C293.156 27.6672 286.6 24.1116 277.932 24.1116C262.818 24.1116 250.26 36.7785 250.26 53.3343C250.26 69.7791 262.818 82.5571 277.932 82.5571C286.6 82.5571 293.156 79.0015 297.379 73.1125V81.1126H309.381V25.556H297.379ZM279.821 71.1124C269.819 71.1124 262.262 63.6679 262.262 53.3343C262.262 43.0008 269.819 35.5562 279.821 35.5562C289.822 35.5562 297.379 43.0008 297.379 53.3343C297.379 63.6679 289.822 71.1124 279.821 71.1124Z" fill="white"/>
<path d="M390.996 69.7791L416.889 33.5562V25.556H375.771V36.8896H400.664L374.66 73.1125V81.1126H418V69.7791H390.996Z" fill="white"/>
<path fill-rule="evenodd" clip-rule="evenodd" d="M326.741 92.6704V104H358.547C362.089 104 364.944 102.956 367.022 100.801C369.166 98.6545 370.213 95.8085 370.213 92.3351V25.6692H357.437V54.1122C357.437 59.9372 356.018 64.2689 353.281 67.2157L353.275 67.222C350.601 70.1774 347.047 71.6701 342.544 71.6701C338.44 71.6701 335.326 70.5931 333.112 68.5202C330.921 66.395 329.762 63.0831 329.762 58.4456V25.6692H316.986V59.3345C316.986 64.0897 317.93 68.2404 319.845 71.7632C321.754 75.2758 324.397 77.9974 327.769 79.9128C331.139 81.8275 334.959 82.7774 339.21 82.7774C342.743 82.7774 345.72 82.3273 348.118 81.3992C350.476 80.4867 352.413 79.3296 354.094 77.941C355.292 76.9512 356.843 75.2064 357.548 73.7772V90.0017C357.548 91.0214 357.31 91.6623 356.949 92.0483C356.597 92.4255 356.024 92.6704 355.102 92.6704H326.741Z" fill="white"/>
<path fill-rule="evenodd" clip-rule="evenodd" d="M33 35.0911C22.5569 35.0911 14.0911 43.5569 14.0911 54C14.0911 64.4431 22.5569 72.9089 33 72.9089C43.4431 72.9089 51.9089 64.4431 51.9089 54C51.9089 43.5569 43.4431 35.0911 33 35.0911ZM0 54C0 35.7746 14.7746 21 33 21C51.2254 21 66 35.7746 66 54C66 72.2254 51.2254 87 33 87C14.7746 87 0 72.2254 0 54Z" fill="url(#paint0_linear_104_665)"/>
<path fill-rule="evenodd" clip-rule="evenodd" d="M33 35.0911C22.5569 35.0911 14.0911 43.5569 14.0911 54C14.0911 57.8912 10.9367 61.0456 7.04557 61.0456C3.15441 61.0456 0 57.8912 0 54C0 35.7746 14.7746 21 33 21C51.2254 21 66 35.7746 66 54C66 57.8912 62.8456 61.0456 58.9544 61.0456C55.0633 61.0456 51.9089 57.8912 51.9089 54C51.9089 43.5569 43.4431 35.0911 33 35.0911Z" fill="url(#paint1_linear_104_665)"/>
<defs>
<linearGradient id="paint0_linear_104_665" x1="52.348" y1="13.6554" x2="52.8804" y2="87.0273" gradientUnits="userSpaceOnUse">
<stop stop-color="#06F1F8"/>
<stop offset="0.35109" stop-color="#7300FF"/>
<stop offset="0.69246" stop-color="#FF3767"/>
<stop offset="1" stop-color="#FFD600"/>
</linearGradient>
<linearGradient id="paint1_linear_104_665" x1="62.5" y1="46" x2="4.5" y2="50" gradientUnits="userSpaceOnUse">
<stop stop-color="#06F1F8"/>
<stop offset="0.401042" stop-color="#0075FF"/>
<stop offset="1" stop-color="#EB055E" stop-opacity="0"/>
</linearGradient>
</defs>
</svg>
