<svg width="233" height="65" viewBox="0 0 233 65" fill="none" xmlns="http://www.w3.org/2000/svg">
<path d="M7.91997 30.3707C7.91997 25.5304 12.6767 23.2895 17.3436 23.2895C21.6516 23.2895 26.2288 24.9926 28.1135 29.564L33.0497 26.6956C30.447 21.1382 24.7031 17.5528 17.3436 17.5528C8.36872 17.5528 1.99653 23.1998 1.99653 30.3707C1.99653 46.8637 28.2033 40.4996 28.2033 51.6144C28.2033 56.9029 23.1773 58.7853 17.8821 58.7853C11.8689 58.7853 7.20198 55.8273 5.5865 51.2559L0.560547 54.2138C2.80427 59.9505 8.90721 64.522 17.8821 64.522C27.4853 64.522 34.1267 59.2335 34.1267 51.6144C34.1267 35.1214 7.91997 41.4856 7.91997 30.3707Z" fill="white"/>
<path d="M63.3464 24.3651V18.6284H50.4225V6.07939L44.499 7.87211V18.6284H35.0754V24.3651H44.499V51.5248C44.499 62.2811 51.2302 65.2391 63.3464 63.4463V58.2475C54.6407 58.606 50.4225 59.2335 50.4225 51.5248V24.3651H63.3464Z" fill="white"/>
<path d="M102.118 18.6284V42.113C102.118 54.1242 95.4765 58.7853 87.5786 58.7853C79.7704 58.7853 75.3727 54.1242 75.3727 46.1466V18.6284H69.4493V46.1466C69.4493 57.3511 76.0907 64.522 87.0401 64.522C93.4123 64.522 98.6177 62.1018 102.118 56.4547V63.4463H108.041V18.6284H102.118Z" fill="white"/>
<path d="M156.472 0.701242V27.4127C152.702 21.4071 146.33 17.5528 138.342 17.5528C125.688 17.5528 115.187 27.7713 115.187 41.0374C115.187 54.3035 125.688 64.522 138.342 64.522C146.33 64.522 152.702 60.6676 156.472 54.662V63.4463H162.395V0.701242H156.472ZM138.791 58.7853C128.829 58.7853 121.11 50.987 121.11 41.0374C121.11 31.0878 128.829 23.2895 138.791 23.2895C148.753 23.2895 156.472 31.0878 156.472 41.0374C156.472 50.987 148.753 58.7853 138.791 58.7853Z" fill="white"/>
<path d="M175.206 9.12702C177.629 9.12702 179.514 7.15503 179.514 4.82449C179.514 2.49396 177.629 0.521973 175.206 0.521973C172.783 0.521973 170.898 2.49396 170.898 4.82449C170.898 7.15503 172.783 9.12702 175.206 9.12702ZM172.244 63.4463H178.168V18.6284H172.244V63.4463Z" fill="white"/>
<path d="M208.957 64.522C222.06 64.522 232.561 54.3035 232.561 41.0374C232.561 27.7713 222.06 17.5528 208.957 17.5528C195.853 17.5528 185.353 27.7713 185.353 41.0374C185.353 54.3035 195.853 64.522 208.957 64.522ZM208.957 58.7853C198.994 58.7853 191.276 50.987 191.276 41.0374C191.276 31.0878 198.994 23.2895 208.957 23.2895C218.919 23.2895 226.637 31.0878 226.637 41.0374C226.637 50.987 218.919 58.7853 208.957 58.7853Z" fill="white"/>
</svg>
